<?xml version="1.0" encoding="UTF-8"?><svg id="Layer_5" xmlns="http://www.w3.org/2000/svg" width="16.39mm" height="15.42mm" viewBox="0 0 46.47 43.7"><defs><style>.cls-1{fill:#231f20;}.cls-2{fill:none;stroke:#231f20;stroke-miterlimit:10;stroke-width:.6px;}</style></defs><path d="m26.94,27.54c2-5.82,4.54-11.43,7.59-16.77l-1.43-.05c-.83,8.03-6.47,14.5-8.05,22.33-.14.69,1.09.54,1.35.18,4.22-6.05,8.42-12.11,12.34-18.37l-1.39-.19c-1.43,4.03-2.85,8.07-4.28,12.1-.27.76.99.8,1.31.33,2.83-4.22,5.66-8.44,8.48-12.65l-1.31-.33c-1.57,3.94-2.7,8.03-3.38,12.23-.09.54.75.59,1.06.4.75-.45,1.5-.91,2.25-1.36.2-.12,2.38-1.66,2.51-.86.12.7,1.57.33,1.45-.39-.51-3.07-5.87,1.11-6.87,1.71l1.06.4c.66-4.1,1.76-8.08,3.3-11.94.3-.75-.99-.8-1.31-.33-2.83,4.22-5.66,8.44-8.48,12.65l1.31.33c1.43-4.03,2.85-8.07,4.28-12.1.3-.86-1.07-.7-1.39-.19-3.86,6.16-8.01,12.13-12.17,18.09l1.35.18c1.58-7.84,7.21-14.28,8.05-22.33.08-.8-1.19-.48-1.43-.05-3.05,5.34-5.59,10.95-7.59,16.77-.28.81,1.17.83,1.39.19h0Z"/><path d="m22.68,19.16c-.57,3.38-1.27,6.74-2.11,10.07l1.46-.13c.17-2.29.51-4.55,1.05-6.78.49-2.01,1.12-4.16,2.68-5.63.56-.53,1.84-1.54,2.41-.52.41.73.23,1.72.07,2.5-.36,1.72-1.23,3.31-2.43,4.58-1.34,1.42-3.05,2.38-4.96,2.73-.27.05-.69.33-.6.65.09.35.59.31.85.26,4.15-.77,7.69-4.13,8.59-8.26.2-.93.35-2.04-.1-2.92-.49-.97-1.6-1.14-2.57-.87-2.34.67-3.86,2.9-4.64,5.06-1.08,2.97-1.57,6.19-1.8,9.33-.05.73,1.32.42,1.46-.13.84-3.33,1.54-6.68,2.11-10.07.11-.68-1.36-.47-1.46.13h0Z"/><path d="m7.26,13.77l-.93,7.72-.46,3.86c-.08.63-.14,1.26-.23,1.88-.03.23-.13,1.23-.45,1.32s-1.07-.38-1.29-.53c-.45-.28-.86-.67-1.12-1.14-.2-.37-.32-.79-.32-1.21,0-.44.04-.46.36-.6.3-.13.71-.15,1.03-.21,2.54-.51,5.1-.97,7.65-1.39.18-.03.83-.17.84-.43,0-.28-.41-.23-.6-.2-2.61.43-5.21.9-7.8,1.42-.8.16-2.13.2-2.69.9-.52.65-.19,1.73.22,2.34.95,1.42,3.2,2.26,4.72,1.23.77-.52.83-1.44.94-2.29l.48-4.01,1.07-8.9c.05-.43-1.39-.16-1.44.23h0Z"/><path d="m12,14.18l-1.8,14.88c-.08.66,1.39.43,1.46-.14l1.8-14.88c.08-.66-1.39-.43-1.46.14h0Z"/><path d="m14.6,28.13c-.26.04-.51.12-.73.25-.1.06-.2.12-.27.21-.05.06-.1.13-.13.21-.03.07-.03.15-.04.22,0,.11.01.22.07.31.09.15.21.24.38.29.15.04.3.05.45.04.18,0,.37-.04.54-.09.32-.1.64-.23.88-.47.12-.12.22-.28.25-.44s.03-.35-.06-.49c-.05-.08-.1-.14-.19-.19-.13-.06-.25-.1-.4-.1-.36,0-.7.07-1.03.22-.07.03-.14.07-.21.12-.1.08-.14.12-.21.23-.02.04-.02.08.01.11.02.04.06.07.11.07.07.02.14.03.21.02.09,0,.17,0,.26-.02.19-.03.38-.08.55-.18l.14-.08c.07-.04.12-.09.16-.16h0s-.04.04-.06.07c.02-.02.03-.04.05-.06l-.1.08s.02-.02.03-.02l-.14.08s.02-.01.04-.02l-.17.07s.02,0,.03-.01l-.19.06s.02,0,.03,0l-.2.04s.02,0,.03,0l-.18.02s.03,0,.04,0h-.16s.04,0,.07,0l-.13-.02s.07.02.11.03l-.09-.04c.06.03.11.07.15.12l-.04-.06c.08.11.1.24.09.37v-.07c0,.12-.05.23-.11.33l.06-.08s-.08.09-.12.13l.1-.08s-.06.05-.1.07l.14-.08s-.05.03-.08.04l.17-.07s-.04.02-.07.03l.19-.06s-.04.01-.06.02l.2-.04s-.05,0-.07.01l.18-.02s-.05,0-.07,0h.16s-.05,0-.08,0l.13.02s-.09-.02-.13-.04l.09.04c-.06-.03-.12-.07-.16-.13l.04.06c-.07-.1-.1-.23-.09-.35v.07c0-.09.03-.17.08-.25l-.06.08s.04-.05.07-.07l-.1.08s.03-.02.04-.03l-.14.08s.02-.01.03-.02l-.17.07s.02,0,.03,0l-.19.06s.02,0,.04,0l-.2.04s.01,0,.02,0c.19-.03.38-.09.55-.18.07-.03.13-.07.19-.12.05-.03.08-.07.11-.12v-.07c-.02-.06-.06-.09-.13-.1-.15-.04-.31-.03-.46,0h0Z"/><path class="cls-1" d="m11.68,36.49v.71h-.25v-1.47h.25v.67h.74v-.67h.25v1.47h-.25v-.71h-.74Z"/><path class="cls-1" d="m13.59,37.22c-.08,0-.15-.01-.22-.04-.07-.03-.13-.07-.18-.12-.05-.05-.09-.11-.12-.17s-.04-.14-.04-.21c0-.09.01-.18.04-.25.03-.08.06-.14.11-.2.05-.06.11-.1.18-.13.07-.03.14-.05.23-.05.07,0,.14.01.2.04s.12.06.16.11.08.09.1.15c.03.06.04.12.04.18h-.85c0,.08,0,.15.03.21.02.07.05.12.08.17.04.05.08.08.13.11.05.03.1.04.16.04.05,0,.1,0,.14-.02.05-.02.09-.04.12-.06.04-.03.07-.06.09-.09.03-.03.04-.07.05-.1l.07.03c-.02.06-.04.11-.08.16-.04.05-.08.1-.13.13s-.1.07-.16.09-.12.03-.17.03Zm.22-.8s0-.08-.02-.12c-.02-.04-.04-.07-.06-.1-.03-.03-.06-.05-.09-.06-.04-.02-.07-.02-.11-.02-.03,0-.07,0-.1.02-.03.02-.06.04-.08.06s-.04.06-.06.1c-.02.04-.03.08-.03.12h.56Z"/><path class="cls-1" d="m14.73,37.2h-.23v-1.65l.16-.06h.07v1.72Z"/><path class="cls-1" d="m15.66,37.22c-.08,0-.15-.01-.22-.04-.07-.03-.13-.07-.18-.12-.05-.05-.09-.11-.12-.17s-.04-.14-.04-.21c0-.09.01-.18.04-.25.03-.08.06-.14.11-.2.05-.06.11-.1.18-.13.07-.03.14-.05.23-.05.07,0,.14.01.2.04s.12.06.16.11.08.09.1.15c.03.06.04.12.04.18h-.85c0,.08,0,.15.03.21.02.07.05.12.08.17.04.05.08.08.13.11.05.03.1.04.16.04.05,0,.1,0,.14-.02.05-.02.09-.04.12-.06.04-.03.07-.06.09-.09.03-.03.04-.07.05-.1l.07.03c-.02.06-.04.11-.08.16-.04.05-.08.1-.13.13s-.1.07-.16.09-.12.03-.17.03Zm.22-.8s0-.08-.02-.12c-.02-.04-.04-.07-.06-.1-.03-.03-.06-.05-.09-.06-.04-.02-.07-.02-.11-.02-.03,0-.07,0-.1.02-.03.02-.06.04-.08.06s-.04.06-.06.1c-.02.04-.03.08-.03.12h.56Z"/><path class="cls-1" d="m16.73,36.04h.06v.23c.07-.08.14-.13.21-.17.07-.04.15-.06.23-.06.04,0,.08,0,.11.03.03.02.06.04.09.07.03.03.05.07.06.11s.02.09.02.13v.82h-.23v-.78s0-.07-.01-.1-.02-.05-.04-.07c-.02-.02-.04-.03-.06-.04-.02-.01-.05-.02-.07-.02-.02,0-.05,0-.08.01-.03,0-.05.02-.08.03-.03.01-.05.03-.08.05-.03.02-.05.04-.08.07v.84h-.23v-1.1l.16-.06Z"/><path class="cls-1" d="m18.68,37.2s-.05-.04-.08-.06c-.02-.03-.03-.06-.03-.09-.03.02-.05.04-.08.06s-.05.04-.08.06-.06.03-.1.04c-.04.01-.08.02-.13.02-.04,0-.08,0-.12-.02s-.07-.03-.09-.06c-.03-.03-.04-.06-.06-.09-.01-.04-.02-.07-.02-.11,0-.05,0-.09.03-.13.02-.04.05-.08.08-.11.03-.03.07-.06.12-.08.04-.02.09-.05.14-.06.05-.02.1-.04.16-.05.05-.01.11-.03.16-.04v-.07c0-.05,0-.1-.01-.13,0-.04-.02-.06-.03-.09-.02-.02-.04-.04-.06-.05-.02,0-.05-.01-.09-.01s-.06,0-.09.02-.05.03-.07.05c-.02.02-.04.05-.05.07-.01.03-.02.06-.03.09h-.21s.02-.09.05-.13c.03-.04.06-.07.1-.1.04-.03.09-.05.14-.06s.11-.02.17-.02c.07,0,.14,0,.19.02.05.01.09.04.12.06.03.03.05.06.07.1.01.04.02.08.02.12v.7s0,.07.03.09c.02.03.04.05.08.06h-.23Zm-.11-.66s-.07.02-.1.04c-.04.01-.07.03-.1.04s-.06.04-.1.05c-.03.02-.06.04-.08.06-.02.02-.04.05-.05.07-.01.02-.02.05-.02.08,0,.03,0,.05.02.08.01.02.02.05.04.07.02.02.04.03.06.04.02.01.04.02.07.02.03,0,.05,0,.07,0,.02,0,.04-.02.07-.03s.04-.02.06-.04c.02-.01.04-.03.07-.05v-.42Z"/><path class="cls-1" d="m19.73,35.72h.25v1.38h.74v.1h-.99v-1.47Z"/><path class="cls-1" d="m21.52,37.22c-.09,0-.17-.02-.24-.05s-.14-.07-.19-.12c-.05-.05-.09-.11-.12-.18-.03-.07-.04-.15-.04-.23s.02-.16.04-.24c.03-.07.07-.14.12-.19.05-.05.12-.1.19-.13.07-.03.15-.05.24-.05s.17.01.24.04c.07.03.14.07.19.12.05.05.09.11.12.18.03.07.04.14.04.22,0,.09-.01.17-.04.24s-.07.14-.12.2-.12.1-.19.13c-.07.03-.15.05-.24.05Zm.04-.08s.08-.01.12-.04c.04-.02.07-.05.1-.09.03-.04.05-.08.06-.13.01-.05.02-.11.02-.16,0-.08,0-.16-.02-.23-.01-.07-.04-.13-.07-.19-.03-.05-.07-.1-.12-.13s-.11-.05-.19-.05c-.04,0-.07.01-.11.03-.04.02-.07.05-.09.09s-.05.08-.06.13c-.02.05-.02.1-.02.16,0,.08,0,.16.03.23.02.07.04.14.08.19.03.05.07.1.12.13.05.03.1.05.17.05Z"/><path class="cls-1" d="m22.72,36.06v.81s0,.05.02.08.03.05.05.07.05.03.08.04c.03.01.06.02.1.02.02,0,.05,0,.07-.01s.05-.02.08-.04.05-.04.07-.06c.02-.02.04-.05.05-.07v-.83h.22v1.14h-.22v-.21s-.04.06-.08.09c-.03.03-.06.05-.1.08s-.07.04-.11.05c-.04.01-.07.02-.11.02-.05,0-.1,0-.14-.03s-.08-.04-.11-.08c-.03-.03-.06-.07-.08-.11-.02-.04-.03-.09-.03-.14v-.81h.23Z"/><path class="cls-1" d="m23.91,35.62s0-.03,0-.05.02-.03.03-.04c.01-.01.03-.02.04-.03s.03,0,.05,0,.03,0,.05,0,.03.02.04.03c.01.01.02.03.03.04,0,.02,0,.03,0,.05s0,.03,0,.05c0,.02-.02.03-.03.04s-.03.02-.04.03c-.02,0-.03,0-.05,0s-.03,0-.05,0c-.02,0-.03-.02-.04-.03-.01-.01-.02-.03-.03-.04s0-.03,0-.05Zm.02.48l.16-.06h.07v1.16h-.22v-1.09Z"/><path class="cls-1" d="m24.96,37.14s.06,0,.08-.01c.03,0,.05-.02.07-.04.02-.02.03-.03.04-.05,0-.02.02-.04.02-.06,0-.03,0-.06-.03-.09-.02-.03-.04-.05-.07-.07s-.06-.04-.1-.06c-.04-.02-.07-.04-.11-.05-.04-.02-.08-.04-.11-.06-.04-.02-.07-.04-.1-.07-.03-.03-.05-.06-.07-.09s-.03-.08-.03-.13,0-.09.03-.13c.02-.04.05-.07.08-.1.04-.03.08-.05.12-.07.05-.02.1-.02.16-.02.04,0,.07,0,.11,0,.03,0,.07.02.1.03s.06.04.09.06c.03.03.06.06.1.11l-.08.08c-.04-.07-.09-.12-.14-.16-.05-.04-.11-.05-.17-.05-.03,0-.06,0-.09.01s-.05.02-.07.03-.03.03-.04.05-.02.04-.02.06c0,.03,0,.06.03.09.02.03.04.05.08.07.03.02.07.04.11.06.04.02.08.03.12.05.04.02.08.04.12.06.04.02.07.04.11.07s.06.06.08.09.03.08.03.12,0,.09-.03.14-.04.08-.08.11c-.04.03-.08.06-.13.07s-.12.03-.19.03c-.03,0-.07,0-.1,0s-.07-.02-.11-.03c-.04-.02-.07-.04-.11-.06-.04-.03-.07-.06-.1-.11l.09-.08s.05.07.08.1c.02.03.05.05.08.07.03.02.05.03.08.04.03,0,.06.01.09.01Z"/><path class="cls-1" d="m26.24,37.22c-.08,0-.15-.01-.22-.04-.07-.03-.13-.07-.18-.12-.05-.05-.09-.11-.12-.17s-.04-.14-.04-.21c0-.09.01-.18.04-.25.03-.08.06-.14.11-.2.05-.06.11-.1.18-.13.07-.03.14-.05.23-.05.07,0,.14.01.2.04s.12.06.16.11.08.09.1.15c.03.06.04.12.04.18h-.85c0,.08,0,.15.03.21.02.07.05.12.08.17.04.05.08.08.13.11.05.03.1.04.16.04.05,0,.1,0,.14-.02.05-.02.09-.04.12-.06.04-.03.07-.06.09-.09.03-.03.04-.07.05-.1l.07.03c-.02.06-.04.11-.08.16-.04.05-.08.1-.13.13s-.1.07-.16.09-.12.03-.17.03Zm.22-.8s0-.08-.02-.12c-.02-.04-.04-.07-.06-.1-.03-.03-.06-.05-.09-.06-.04-.02-.07-.02-.11-.02-.03,0-.07,0-.1.02-.03.02-.06.04-.08.06s-.04.06-.06.1c-.02.04-.03.08-.03.12h.56Z"/><path class="cls-1" d="m27.67,35.72h.47c.08,0,.15,0,.22.03s.13.05.18.08c.05.04.09.08.12.13.03.05.04.11.04.18s-.01.12-.04.17c-.03.05-.06.09-.11.12-.05.03-.1.06-.16.07s-.12.02-.18.02c-.03,0-.05,0-.08,0s-.05,0-.08,0c-.03,0-.05,0-.07,0-.02,0-.04,0-.05,0v.68h-.25v-1.47Zm.25.71s.06.02.09.02c.03,0,.06,0,.1,0,.05,0,.1,0,.14-.02s.07-.04.1-.07c.03-.03.05-.06.06-.1.01-.04.02-.08.02-.12,0-.05,0-.09-.03-.13-.02-.04-.04-.07-.07-.1-.03-.03-.07-.05-.11-.07-.04-.02-.08-.02-.13-.02h-.17v.6Z"/><path class="cls-1" d="m29.51,35.56s-.05,0-.07.02c-.02.01-.04.03-.05.05-.01.02-.03.04-.03.07s-.01.06-.01.08v.27h.3v.1h-.3v1.04h-.23v-1.04h-.24v-.1h.24v-.13c0-.06.01-.12.03-.18.02-.05.05-.1.09-.14.04-.04.08-.07.13-.1.05-.02.11-.04.17-.04.04,0,.08,0,.12.02s.07.03.1.04c.03.02.06.04.09.07.02.03.04.06.06.09l-.16.12s-.02-.06-.03-.09c-.01-.03-.02-.06-.04-.08-.02-.02-.04-.04-.06-.06-.03-.02-.06-.02-.1-.02Z"/><path class="cls-1" d="m30.38,37.22c-.08,0-.15-.01-.22-.04-.07-.03-.13-.07-.18-.12-.05-.05-.09-.11-.12-.17s-.04-.14-.04-.21c0-.09.01-.18.04-.25.03-.08.06-.14.11-.2.05-.06.11-.1.18-.13.07-.03.14-.05.23-.05.07,0,.14.01.2.04s.12.06.16.11.08.09.1.15c.03.06.04.12.04.18h-.85c0,.08,0,.15.03.21.02.07.05.12.08.17.04.05.08.08.13.11.05.03.1.04.16.04.05,0,.1,0,.14-.02.05-.02.09-.04.12-.06.04-.03.07-.06.09-.09.03-.03.04-.07.05-.1l.07.03c-.02.06-.04.11-.08.16-.04.05-.08.1-.13.13s-.1.07-.16.09-.12.03-.17.03Zm.22-.8s0-.08-.02-.12c-.02-.04-.04-.07-.06-.1-.03-.03-.06-.05-.09-.06-.04-.02-.07-.02-.11-.02-.03,0-.07,0-.1.02-.03.02-.06.04-.08.06s-.04.06-.06.1c-.02.04-.03.08-.03.12h.56Z"/><path class="cls-1" d="m31.76,35.56s-.05,0-.07.02c-.02.01-.04.03-.05.05-.01.02-.03.04-.03.07s-.01.06-.01.08v.27h.3v.1h-.3v1.04h-.23v-1.04h-.24v-.1h.24v-.13c0-.06.01-.12.03-.18.02-.05.05-.1.09-.14.04-.04.08-.07.13-.1.05-.02.11-.04.17-.04.04,0,.08,0,.12.02s.07.03.1.04c.03.02.06.04.09.07.02.03.04.06.06.09l-.16.12s-.02-.06-.03-.09c-.01-.03-.02-.06-.04-.08-.02-.02-.04-.04-.06-.06-.03-.02-.06-.02-.1-.02Z"/><path class="cls-1" d="m32.63,35.56s-.05,0-.07.02c-.02.01-.04.03-.05.05-.01.02-.03.04-.03.07s-.01.06-.01.08v.27h.3v.1h-.3v1.04h-.23v-1.04h-.24v-.1h.24v-.13c0-.06.01-.12.03-.18.02-.05.05-.1.09-.14.04-.04.08-.07.13-.1.05-.02.11-.04.17-.04.04,0,.08,0,.12.02s.07.03.1.04c.03.02.06.04.09.07.02.03.04.06.06.09l-.16.12s-.02-.06-.03-.09c-.01-.03-.02-.06-.04-.08-.02-.02-.04-.04-.06-.06-.03-.02-.06-.02-.1-.02Z"/><path class="cls-1" d="m33.5,37.22c-.08,0-.15-.01-.22-.04-.07-.03-.13-.07-.18-.12-.05-.05-.09-.11-.12-.17s-.04-.14-.04-.21c0-.09.01-.18.04-.25.03-.08.06-.14.11-.2.05-.06.11-.1.18-.13.07-.03.14-.05.23-.05.07,0,.14.01.2.04s.12.06.16.11.08.09.1.15c.03.06.04.12.04.18h-.85c0,.08,0,.15.03.21.02.07.05.12.08.17.04.05.08.08.13.11.05.03.1.04.16.04.05,0,.1,0,.14-.02.05-.02.09-.04.12-.06.04-.03.07-.06.09-.09.03-.03.04-.07.05-.1l.07.03c-.02.06-.04.11-.08.16-.04.05-.08.1-.13.13s-.1.07-.16.09-.12.03-.17.03Zm.22-.8s0-.08-.02-.12c-.02-.04-.04-.07-.06-.1-.03-.03-.06-.05-.09-.06-.04-.02-.07-.02-.11-.02-.03,0-.07,0-.1.02-.03.02-.06.04-.08.06s-.04.06-.06.1c-.02.04-.03.08-.03.12h.56Z"/><path class="cls-1" d="m34.57,36.04h.03l.03.23s.04-.07.07-.09c.03-.03.06-.05.09-.07.03-.02.07-.04.1-.05s.07-.02.11-.02c.03,0,.07,0,.1.01s.06.02.09.04l-.07.19s-.03-.03-.05-.04c-.02,0-.03-.02-.05-.02-.02,0-.03,0-.05,0-.02,0-.04,0-.05,0-.03,0-.06,0-.08.01s-.05.02-.08.04-.05.04-.07.06c-.02.03-.04.05-.05.09v.79h-.23v-1.1l.16-.06Z"/><polyline class="cls-2" points="2.76 13.35 2.76 1.38 43.71 1.38 43.71 13.35"/><polyline class="cls-2" points="2.76 30.35 2.76 42.32 43.71 42.32 43.71 30.35"/></svg>