<?xml version="1.0" encoding="UTF-8"?><svg id="Layer_5" xmlns="http://www.w3.org/2000/svg" width="16.31mm" height="8.83mm" viewBox="0 0 46.22 25.02"><defs><style>.cls-1{fill:#323e3f;}</style></defs><path class="cls-1" d="m26.82,18.21c2-5.82,4.54-11.43,7.59-16.77l-1.43-.05c-.83,8.03-6.47,14.5-8.05,22.33-.14.69,1.09.54,1.35.18,4.22-6.05,8.42-12.11,12.34-18.37l-1.39-.19c-1.43,4.03-2.85,8.07-4.28,12.1-.27.76.99.8,1.31.33,2.83-4.22,5.66-8.44,8.48-12.65l-1.31-.33c-1.57,3.94-2.7,8.03-3.38,12.23-.09.54.75.59,1.06.4.75-.45,1.5-.91,2.25-1.36.2-.12,2.38-1.66,2.51-.86.12.7,1.57.33,1.45-.39-.51-3.07-5.87,1.11-6.87,1.71l1.06.4c.66-4.1,1.76-8.08,3.3-11.94.3-.75-.99-.8-1.31-.33-2.83,4.22-5.66,8.44-8.48,12.65l1.31.33c1.43-4.03,2.85-8.07,4.28-12.1.3-.86-1.07-.7-1.39-.19-3.86,6.16-8.01,12.13-12.17,18.09l1.35.18c1.58-7.84,7.21-14.28,8.05-22.33.08-.8-1.19-.48-1.43-.05-3.05,5.34-5.59,10.95-7.59,16.77-.28.81,1.17.83,1.39.19h0Z"/><path class="cls-1" d="m22.56,9.82c-.57,3.38-1.27,6.74-2.11,10.07l1.46-.13c.17-2.29.51-4.55,1.05-6.78.49-2.01,1.12-4.16,2.68-5.63.56-.53,1.84-1.54,2.41-.52.41.73.23,1.72.07,2.5-.36,1.72-1.23,3.31-2.43,4.58-1.34,1.42-3.05,2.38-4.96,2.73-.27.05-.69.33-.6.65.09.35.59.31.85.26,4.15-.77,7.69-4.13,8.59-8.26.2-.93.35-2.04-.1-2.92-.49-.97-1.6-1.14-2.57-.87-2.34.67-3.86,2.9-4.64,5.06-1.08,2.97-1.57,6.19-1.8,9.33-.05.73,1.32.42,1.46-.13.84-3.33,1.54-6.68,2.11-10.07.11-.68-1.36-.47-1.46.13h0Z"/><path class="cls-1" d="m7.13,4.44c-.31,2.57-.62,5.14-.93,7.72l-.46,3.86c-.08.63-.14,1.26-.23,1.88-.03.23-.13,1.23-.45,1.32s-1.07-.38-1.29-.53c-.45-.28-.86-.67-1.12-1.14-.2-.37-.32-.79-.32-1.21,0-.44.04-.46.36-.6.3-.13.71-.15,1.03-.21,2.54-.51,5.1-.97,7.65-1.39.18-.03.83-.17.84-.43,0-.28-.41-.23-.6-.2-2.61.43-5.21.9-7.8,1.42-.8.16-2.13.2-2.69.9-.52.65-.19,1.73.22,2.34.95,1.42,3.2,2.26,4.72,1.23.77-.52.83-1.44.94-2.29l.48-4.01c.36-2.97.71-5.93,1.07-8.9.05-.43-1.39-.16-1.44.23h0Z"/><path class="cls-1" d="m11.88,4.84c-.6,4.96-1.2,9.92-1.8,14.88-.08.66,1.39.43,1.46-.14.6-4.96,1.2-9.92,1.8-14.88.08-.66-1.39-.43-1.46.14h0Z"/><path class="cls-1" d="m14.48,18.79c-.26.04-.51.12-.73.25-.1.06-.2.12-.27.21-.05.06-.1.13-.13.21-.03.07-.03.15-.04.22,0,.11.01.22.07.31.09.15.21.24.38.29.15.04.3.05.45.04.18,0,.37-.04.54-.09.32-.1.64-.23.88-.47.12-.12.22-.28.25-.44s.03-.35-.06-.49c-.05-.08-.1-.14-.19-.19-.13-.06-.25-.1-.4-.1-.36,0-.7.07-1.03.22-.07.03-.14.07-.21.12-.1.08-.14.12-.21.23-.02.04-.02.08.01.11.02.04.06.07.11.07.07.02.14.03.21.02.09,0,.17,0,.26-.02.19-.03.38-.08.55-.18l.14-.08c.07-.04.12-.09.16-.16h0s-.04.04-.06.07c.02-.02.03-.04.05-.06l-.1.08s.02-.02.03-.02l-.14.08s.02-.01.04-.02l-.17.07s.02,0,.03-.01l-.19.06s.02,0,.03,0l-.2.04s.02,0,.03,0l-.18.02s.03,0,.04,0h-.16s.04,0,.07,0l-.13-.02s.07.02.11.03l-.09-.04c.06.03.11.07.15.12l-.04-.06c.08.11.1.24.09.37v-.07c0,.12-.05.23-.11.33l.06-.08s-.08.09-.12.13l.1-.08s-.06.05-.1.07l.14-.08s-.05.03-.08.04l.17-.07s-.04.02-.07.03l.19-.06s-.04.01-.06.02l.2-.04s-.05,0-.07.01l.18-.02s-.05,0-.07,0h.16s-.05,0-.08,0l.13.02s-.09-.02-.13-.04l.09.04c-.06-.03-.12-.07-.16-.13l.04.06c-.07-.1-.1-.23-.09-.35v.07c0-.09.03-.17.08-.25l-.06.08s.04-.05.07-.07l-.1.08s.03-.02.04-.03l-.14.08s.02-.01.03-.02l-.17.07s.02,0,.03,0l-.19.06s.02,0,.04,0l-.2.04s.01,0,.02,0c.19-.03.38-.09.55-.18.07-.03.13-.07.19-.12.05-.03.08-.07.11-.12v-.07c-.02-.06-.06-.09-.13-.1-.15-.04-.31-.03-.46,0h0Z"/></svg>